<svg width="233" height="233" viewBox="0 0 233 233" fill="none" xmlns="http://www.w3.org/2000/svg">
<path d="M218.437 112.859C218.385 101.97 214.597 91.4288 207.707 82.9963C200.817 74.5638 191.242 68.7509 180.582 66.5288C177.48 51.8337 169.42 38.6516 157.755 29.1918C146.089 19.7321 131.526 14.5696 116.507 14.5696C101.488 14.5696 86.9255 19.7321 75.2599 29.1918C63.5943 38.6516 55.5348 51.8337 52.4322 66.5288C41.7693 68.748 32.1911 74.5596 25.2983 82.9924C18.4055 91.4251 14.6157 101.968 14.5624 112.859C14.566 124.581 18.9496 135.877 26.8532 144.533C20.8827 150.684 16.8598 158.46 15.2882 166.887C13.7166 175.314 14.6662 184.018 18.018 191.908C21.3699 199.798 26.975 206.523 34.1314 211.242C41.2879 215.962 49.6776 218.464 58.2499 218.438H138.344C145.408 218.467 152.373 216.776 158.638 213.511C164.903 210.245 170.278 205.504 174.299 199.696C178.321 193.888 180.868 187.188 181.72 180.175C182.573 173.162 181.705 166.047 179.191 159.445C190.166 157.536 200.116 151.819 207.294 143.301C214.472 134.782 218.417 123.999 218.437 112.859ZM138.344 203.875H58.2499C50.9563 203.887 43.9245 201.158 38.5494 196.227C33.1743 191.297 29.8485 184.527 29.2317 177.26C28.6149 169.992 30.7522 162.758 35.2197 156.993C39.6871 151.228 46.1583 147.352 53.3497 146.135L58.1771 145.319L59.2402 140.543C61.2161 131.655 66.1635 123.708 73.2655 118.011C80.3676 112.315 89.1998 109.21 98.3041 109.21C107.408 109.21 116.241 112.315 123.343 118.011C130.445 123.708 135.392 131.655 137.368 140.543L138.424 145.319L143.251 146.142C150.434 147.369 156.894 151.248 161.353 157.012C165.811 162.775 167.943 170.003 167.326 177.264C166.709 184.524 163.388 191.288 158.02 196.217C152.653 201.145 145.63 203.878 138.344 203.875ZM171.109 145.625H170.709C165.263 139.53 158.206 135.097 150.35 132.839C146.866 121.763 139.938 112.086 130.576 105.217C121.214 98.3482 109.905 94.6444 98.2932 94.6444C86.6814 94.6444 75.3722 98.3482 66.01 105.217C56.6479 112.086 49.7208 121.763 46.2359 132.839C43.6473 133.593 41.1342 134.585 38.7289 135.803C35.6942 132.801 33.2833 129.228 31.635 125.29C29.9867 121.353 29.1337 117.128 29.1249 112.859C29.1624 104.633 32.2817 96.7186 37.8674 90.6786C43.4531 84.6387 51.0997 80.9114 59.2984 80.2321L65.2399 79.7661L65.9608 73.8538C67.4806 61.5195 73.4583 50.1666 82.7678 41.9339C92.0773 33.7011 104.076 29.1567 116.504 29.1567C128.931 29.1567 140.93 33.7011 150.239 41.9339C159.549 50.1666 165.527 61.5195 167.046 73.8538L167.767 79.7661L173.701 80.2321C182.155 80.8757 190.029 84.7731 195.668 91.1043C201.307 97.4355 204.27 105.707 203.934 114.178C203.598 122.65 199.99 130.661 193.868 136.526C187.746 142.391 179.587 145.653 171.109 145.625Z" fill="#F8F8F8"/>
</svg>
