<svg width="233" height="233" viewBox="0 0 233 233" fill="none" xmlns="http://www.w3.org/2000/svg">
<path d="M78.2734 178.391C78.2734 180.191 77.7396 181.95 76.7395 183.447C75.7394 184.944 74.3179 186.11 72.6548 186.799C70.9917 187.488 69.1617 187.668 67.3962 187.317C65.6307 186.966 64.0089 186.099 62.736 184.826C61.4632 183.553 60.5963 181.932 60.2451 180.166C59.894 178.401 60.0742 176.571 60.7631 174.908C61.452 173.244 62.6185 171.823 64.1153 170.823C65.612 169.823 67.3717 169.289 69.1718 169.289C71.5857 169.289 73.9007 170.248 75.6076 171.955C77.3145 173.662 78.2734 175.977 78.2734 178.391ZM105.578 183.852C103.778 183.852 102.018 184.385 100.522 185.385C99.0248 186.385 97.8582 187.807 97.1693 189.47C96.4804 191.133 96.3002 192.963 96.6514 194.729C97.0026 196.494 97.8694 198.116 99.1423 199.389C100.415 200.662 102.037 201.529 103.802 201.88C105.568 202.231 107.398 202.051 109.061 201.362C110.724 200.673 112.146 199.506 113.146 198.01C114.146 196.513 114.68 194.753 114.68 192.953C114.68 190.539 113.721 188.224 112.014 186.517C110.307 184.81 107.992 183.852 105.578 183.852ZM149.266 169.289C147.465 169.289 145.706 169.823 144.209 170.823C142.712 171.823 141.546 173.244 140.857 174.908C140.168 176.571 139.988 178.401 140.339 180.166C140.69 181.932 141.557 183.553 142.83 184.826C144.103 186.099 145.724 186.966 147.49 187.317C149.255 187.668 151.085 187.488 152.749 186.799C154.412 186.11 155.833 184.944 156.833 183.447C157.833 181.95 158.367 180.191 158.367 178.391C158.367 175.977 157.408 173.662 155.701 171.955C153.994 170.248 151.679 169.289 149.266 169.289ZM61.8906 205.695C60.0905 205.695 58.3308 206.229 56.834 207.229C55.3373 208.229 54.1707 209.651 53.4818 211.314C52.7929 212.977 52.6127 214.807 52.9639 216.572C53.3151 218.338 54.1819 219.96 55.4548 221.233C56.7277 222.505 58.3494 223.372 60.1149 223.723C61.8805 224.075 63.7105 223.894 65.3736 223.206C67.0367 222.517 68.4581 221.35 69.4582 219.853C70.4583 218.357 70.9921 216.597 70.9921 214.797C70.9921 212.383 70.0332 210.068 68.3263 208.361C66.6195 206.654 64.3045 205.695 61.8906 205.695ZM141.984 205.695C140.184 205.695 138.424 206.229 136.928 207.229C135.431 208.229 134.264 209.651 133.576 211.314C132.887 212.977 132.706 214.807 133.058 216.572C133.409 218.338 134.276 219.96 135.549 221.233C136.821 222.505 138.443 223.372 140.209 223.723C141.974 224.075 143.804 223.894 145.467 223.206C147.13 222.517 148.552 221.35 149.552 219.853C150.552 218.357 151.086 216.597 151.086 214.797C151.086 212.383 150.127 210.068 148.42 208.361C146.713 206.654 144.398 205.695 141.984 205.695ZM209.336 83.7343C209.314 101.59 202.211 118.709 189.585 131.335C176.959 143.961 159.84 151.064 141.984 151.086H69.1718C62.8218 151.054 56.5487 149.693 50.7561 147.091C44.9635 144.489 39.7795 140.704 35.5376 135.978C31.2956 131.253 28.0896 125.692 26.1257 119.653C24.1617 113.614 23.4834 107.231 24.1342 100.915C24.785 94.598 26.7506 88.4874 29.9045 82.9759C33.0585 77.4644 37.331 72.674 42.4474 68.9127C47.5637 65.1514 53.4106 62.5026 59.6121 61.1364C65.8135 59.7703 72.2322 59.7172 78.4554 60.9804C83.8206 46.0413 94.2846 33.4741 108.005 25.4917C121.725 17.5092 137.821 14.6233 153.46 17.3421C169.099 20.061 183.277 28.2102 193.498 40.3549C203.719 52.4996 209.327 67.861 209.336 83.7343ZM198.414 83.7343C198.366 69.0734 192.62 55.0055 182.39 44.5039C172.159 34.0023 158.247 27.8899 143.592 27.4585C128.937 27.0271 114.689 32.3106 103.859 42.1923C93.0285 52.074 86.4647 65.7796 85.5546 80.4122C85.4701 81.8606 84.8138 83.216 83.7299 84.1804C82.646 85.1448 81.2235 85.6391 79.7751 85.5546C78.3268 85.4701 76.9714 84.8138 76.007 83.7299C75.0426 82.646 74.5483 81.2235 74.6328 79.7751C74.7938 77.0277 75.119 74.2924 75.6066 71.5837C70.8801 70.6982 66.0208 70.808 61.3391 71.9061C56.6574 73.0043 52.2561 75.0667 48.4163 77.9616C44.5766 80.8565 41.3827 84.5203 39.0386 88.7191C36.6946 92.9179 35.2519 97.5594 34.8026 102.347C34.3534 107.135 34.9075 111.964 36.4296 116.525C37.9517 121.087 40.4083 125.281 43.6425 128.84C46.8768 132.398 50.8176 135.243 55.2133 137.193C59.609 139.143 64.363 140.155 69.1718 140.164H141.984C156.945 140.147 171.289 134.196 181.868 123.618C192.446 113.039 198.397 98.6952 198.414 83.7343Z" fill="#F8F8F8"/>
</svg>
