<svg width="190" height="190" viewBox="0 0 190 190" fill="none" xmlns="http://www.w3.org/2000/svg">
<g clip-path="url(#clip0_15_7)">
<path d="M148.438 23.75C140.564 23.75 133.013 26.8778 127.445 32.4453C121.878 38.0128 118.75 45.5639 118.75 53.4375C118.75 55.0122 118.124 56.5224 117.011 57.6359C115.897 58.7494 114.387 59.375 112.813 59.375C111.238 59.375 109.728 58.7494 108.614 57.6359C107.501 56.5224 106.875 55.0122 106.875 53.4375C106.875 45.2172 109.313 37.1815 113.88 30.3466C118.446 23.5117 124.938 18.1845 132.532 15.0388C140.127 11.893 148.484 11.0699 156.546 12.6736C164.608 14.2773 172.014 18.2358 177.827 24.0484C183.639 29.861 187.598 37.2667 189.201 45.3291C190.805 53.3914 189.982 61.7482 186.836 69.3428C183.69 76.9373 178.363 83.4285 171.528 87.9955C164.693 92.5624 156.658 95 148.438 95H5.9375C4.36278 95 2.85255 94.3744 1.73905 93.2609C0.625556 92.1474 0 90.6372 0 89.0625C0 87.4878 0.625556 85.9776 1.73905 84.8641C2.85255 83.7506 4.36278 83.125 5.9375 83.125H148.438C156.311 83.125 163.862 79.9972 169.43 74.4297C174.997 68.8622 178.125 61.3111 178.125 53.4375C178.125 45.5639 174.997 38.0128 169.43 32.4453C163.862 26.8778 156.311 23.75 148.438 23.75ZM65.3125 35.625C62.1631 35.625 59.1426 36.8761 56.9156 39.1031C54.6886 41.3301 53.4375 44.3506 53.4375 47.5C53.4375 49.0747 52.8119 50.5849 51.6984 51.6984C50.585 52.8119 49.0747 53.4375 47.5 53.4375C45.9253 53.4375 44.4151 52.8119 43.3016 51.6984C42.1881 50.5849 41.5625 49.0747 41.5625 47.5C41.5625 42.8027 42.9554 38.2109 45.5651 34.3052C48.1748 30.3995 51.884 27.3554 56.2238 25.5579C60.5635 23.7603 65.3389 23.29 69.9459 24.2063C74.5529 25.1227 78.7848 27.3847 82.1063 30.7062C85.4278 34.0277 87.6898 38.2596 88.6062 42.8666C89.5226 47.4737 89.0522 52.249 87.2546 56.5887C85.4571 60.9285 82.413 64.6377 78.5073 67.2474C74.6016 69.8571 70.0098 71.25 65.3125 71.25H5.9375C4.36278 71.25 2.85255 70.6244 1.73905 69.5109C0.625556 68.3974 0 66.8872 0 65.3125C0 63.7378 0.625556 62.2276 1.73905 61.1141C2.85255 60.0006 4.36278 59.375 5.9375 59.375H65.3125C68.462 59.375 71.4824 58.1239 73.7094 55.8969C75.9364 53.6699 77.1875 50.6494 77.1875 47.5C77.1875 44.3506 75.9364 41.3301 73.7094 39.1031C71.4824 36.8761 68.462 35.625 65.3125 35.625ZM0 112.813C0 111.238 0.625556 109.728 1.73905 108.614C2.85255 107.501 4.36278 106.875 5.9375 106.875H125.186C132.232 106.875 139.12 108.964 144.978 112.879C150.837 116.793 155.403 122.357 158.099 128.867C160.796 135.377 161.501 142.54 160.127 149.45C158.752 156.361 155.359 162.708 150.377 167.691C145.395 172.673 139.047 176.066 132.136 177.44C125.226 178.815 118.063 178.11 111.553 175.413C105.044 172.717 99.4797 168.151 95.5652 162.292C91.6506 156.434 89.5613 149.546 89.5613 142.5C89.5613 140.925 90.1868 139.415 91.3003 138.302C92.4138 137.188 93.924 136.563 95.4988 136.563C97.0735 136.563 98.5837 137.188 99.6972 138.302C100.811 139.415 101.436 140.925 101.436 142.5C101.436 147.197 102.829 151.789 105.439 155.695C108.049 159.6 111.758 162.645 116.098 164.442C120.437 166.24 125.213 166.71 129.82 165.794C134.427 164.877 138.659 162.615 141.98 159.294C145.302 155.972 147.564 151.74 148.48 147.133C149.396 142.526 148.926 137.751 147.128 133.411C145.331 129.072 142.287 125.362 138.381 122.753C134.475 120.143 129.884 118.75 125.186 118.75H5.9375C4.36278 118.75 2.85255 118.124 1.73905 117.011C0.625556 115.897 0 114.387 0 112.813Z" fill="#F8F8F8"/>
</g>
<defs>
<clipPath id="clip0_15_7">
<rect width="190" height="190" fill="white"/>
</clipPath>
</defs>
</svg>
