<svg width="233" height="233" viewBox="0 0 233 233" fill="none" xmlns="http://www.w3.org/2000/svg">
<path d="M123.781 218.437C122.541 218.437 121.321 218.119 120.237 217.515C119.154 216.91 118.243 216.039 117.591 214.983C116.939 213.928 116.567 212.723 116.511 211.484C116.455 210.244 116.717 209.011 117.272 207.901L131.834 178.776C132.243 177.891 132.826 177.097 133.548 176.441C134.269 175.786 135.115 175.281 136.035 174.959C136.956 174.636 137.931 174.502 138.904 174.563C139.878 174.625 140.829 174.881 141.701 175.317C142.573 175.753 143.349 176.36 143.982 177.102C144.615 177.843 145.093 178.705 145.387 179.634C145.681 180.564 145.785 181.544 145.693 182.514C145.602 183.485 145.316 184.428 144.853 185.286L130.291 214.411C129.688 215.621 128.759 216.639 127.609 217.351C126.459 218.062 125.133 218.438 123.781 218.437ZM58.25 218.437C57.0094 218.437 55.7894 218.119 54.706 217.515C53.6226 216.91 52.7116 216.039 52.0595 214.983C51.4074 213.928 51.0359 212.723 50.98 211.484C50.9242 210.244 51.186 209.011 51.7406 207.901L66.3031 178.776C66.712 177.891 67.2946 177.097 68.0162 176.441C68.7379 175.786 69.5839 175.281 70.5041 174.959C71.4244 174.636 72.4 174.502 73.3732 174.563C74.3464 174.625 75.2972 174.881 76.1694 175.317C77.0416 175.753 77.8173 176.36 78.4505 177.102C79.0837 177.843 79.5615 178.705 79.8555 179.634C80.1495 180.564 80.2538 181.544 80.1622 182.514C80.0705 183.485 79.7848 184.428 79.322 185.286L64.7595 214.411C64.1565 215.621 63.2278 216.639 62.0779 217.351C60.9279 218.062 59.6022 218.438 58.25 218.437Z" fill="#F8F8F8"/>
<path d="M218.437 112.859C218.386 101.968 214.598 91.424 207.707 82.9898C200.815 74.5557 191.238 68.7424 180.575 66.5215C177.472 51.8264 169.413 38.6443 157.747 29.1845C146.082 19.7248 131.519 14.5623 116.5 14.5623C101.481 14.5623 86.9182 19.7248 75.2526 29.1845C63.587 38.6443 55.5276 51.8264 52.4249 66.5215C42.7057 68.4918 33.8527 73.4699 27.1196 80.7508C20.3865 88.0317 16.1146 97.2463 14.9089 107.09C13.7033 116.933 15.6249 126.906 20.4018 135.597C25.1786 144.288 32.5685 151.255 41.5249 155.513L29.8968 178.777C29.4339 179.635 29.1482 180.577 29.0565 181.548C28.9649 182.519 29.0692 183.498 29.3632 184.428C29.6572 185.358 30.135 186.219 30.7682 186.961C31.4014 187.702 32.1771 188.309 33.0493 188.745C33.9215 189.181 34.8724 189.438 35.8455 189.499C36.8187 189.561 37.7944 189.426 38.7146 189.104C39.6348 188.781 40.4808 188.277 41.2025 187.621C41.9241 186.965 42.5067 186.171 42.9156 185.286L55.4612 160.188H104.719L95.428 178.777C94.9652 179.635 94.6794 180.577 94.5878 181.548C94.4961 182.519 94.6004 183.498 94.8944 184.428C95.1885 185.358 95.6663 186.219 96.2995 186.961C96.9327 187.702 97.7084 188.309 98.5805 188.745C99.4527 189.181 100.404 189.438 101.377 189.499C102.35 189.561 103.326 189.426 104.246 189.104C105.166 188.781 106.012 188.277 106.734 187.621C107.455 186.965 108.038 186.171 108.447 185.286L121.007 160.188H170.257L160.967 178.777C160.504 179.635 160.218 180.577 160.126 181.548C160.035 182.519 160.139 183.498 160.433 184.428C160.727 185.358 161.205 186.219 161.838 186.961C162.471 187.702 163.247 188.309 164.119 188.745C164.991 189.181 165.942 189.438 166.915 189.499C167.888 189.561 168.864 189.426 169.784 189.104C170.705 188.781 171.551 188.277 172.272 187.621C172.994 186.965 173.576 186.171 173.985 185.286L188.147 156.962C197.052 153.519 204.709 147.466 210.115 139.596C215.52 131.726 218.421 122.407 218.437 112.859ZM171.109 145.625H61.8906C53.4126 145.653 45.2543 142.391 39.1323 136.526C33.0103 130.661 29.4018 122.65 29.066 114.178C28.7302 105.707 31.6933 97.4355 37.3319 91.1043C42.9704 84.7731 50.8448 80.8757 59.2984 80.2321L65.2399 79.7661L65.9608 73.8537C67.4806 61.5194 73.4583 50.1666 82.7678 41.9338C92.0773 33.701 104.076 29.1566 116.504 29.1566C128.931 29.1566 140.93 33.701 150.239 41.9338C159.549 50.1666 165.527 61.5194 167.046 73.8537L167.767 79.7661L173.701 80.2321C182.155 80.8757 190.029 84.7731 195.668 91.1043C201.307 97.4355 204.27 105.707 203.934 114.178C203.598 122.65 199.99 130.661 193.868 136.526C187.746 142.391 179.587 145.653 171.109 145.625Z" fill="#F8F8F8"/>
</svg>
