<svg width="233" height="233" viewBox="0 0 233 233" fill="none" xmlns="http://www.w3.org/2000/svg">
<path d="M109.219 36.4062V14.5625C109.219 12.6314 109.986 10.7794 111.351 9.41388C112.717 8.04838 114.569 7.28125 116.5 7.28125C118.431 7.28125 120.283 8.04838 121.649 9.41388C123.014 10.7794 123.781 12.6314 123.781 14.5625V36.4062C123.781 38.3374 123.014 40.1894 121.649 41.5549C120.283 42.9204 118.431 43.6875 116.5 43.6875C114.569 43.6875 112.717 42.9204 111.351 41.5549C109.986 40.1894 109.219 38.3374 109.219 36.4062ZM174.75 116.5C174.75 128.021 171.334 139.283 164.933 148.862C158.533 158.441 149.435 165.907 138.791 170.316C128.148 174.725 116.435 175.878 105.136 173.631C93.8366 171.383 83.4574 165.835 75.311 157.689C67.1646 149.543 61.6168 139.163 59.3693 127.864C57.1217 116.565 58.2752 104.852 62.684 94.2087C67.0928 83.5649 74.5589 74.4675 84.138 68.0669C93.7172 61.6663 104.979 58.25 116.5 58.25C131.944 58.2669 146.75 64.4093 157.67 75.3297C168.591 86.25 174.733 101.056 174.75 116.5ZM160.188 116.5C160.188 107.859 157.625 99.4129 152.825 92.2285C148.024 85.0442 141.201 79.4446 133.218 76.138C125.236 72.8314 116.452 71.9663 107.977 73.6519C99.5024 75.3376 91.7181 79.4985 85.6083 85.6083C79.4985 91.7181 75.3376 99.5024 73.6519 107.977C71.9663 116.452 72.8314 125.236 76.138 133.218C79.4446 141.201 85.0442 148.024 92.2285 152.825C99.4129 157.625 107.859 160.187 116.5 160.188C128.083 160.175 139.188 155.569 147.378 147.378C155.569 139.188 160.175 128.083 160.188 116.5ZM53.0985 63.4015C54.4648 64.7677 56.3178 65.5353 58.25 65.5353C60.1822 65.5353 62.0352 64.7677 63.4015 63.4015C64.7677 62.0352 65.5353 60.1822 65.5353 58.25C65.5353 56.3178 64.7677 54.4648 63.4015 53.0985L48.839 38.536C47.4727 37.1698 45.6197 36.4022 43.6875 36.4022C41.7553 36.4022 39.9023 37.1698 38.536 38.536C37.1698 39.9023 36.4022 41.7553 36.4022 43.6875C36.4022 45.6197 37.1698 47.4727 38.536 48.839L53.0985 63.4015ZM53.0985 169.599L38.536 184.161C37.1698 185.527 36.4022 187.38 36.4022 189.312C36.4022 191.245 37.1698 193.098 38.536 194.464C39.9023 195.83 41.7553 196.598 43.6875 196.598C45.6197 196.598 47.4727 195.83 48.839 194.464L63.4015 179.901C64.078 179.225 64.6146 178.422 64.9807 177.538C65.3469 176.654 65.5353 175.707 65.5353 174.75C65.5353 173.793 65.3469 172.846 64.9807 171.962C64.6146 171.078 64.078 170.275 63.4015 169.599C62.725 168.922 61.9219 168.385 61.038 168.019C60.1541 167.653 59.2067 167.465 58.25 167.465C57.2933 167.465 56.3459 167.653 55.462 168.019C54.5781 168.385 53.775 168.922 53.0985 169.599ZM174.75 65.5312C175.706 65.532 176.654 65.3443 177.538 64.9789C178.422 64.6134 179.225 64.0774 179.901 63.4015L194.464 48.839C195.83 47.4727 196.598 45.6197 196.598 43.6875C196.598 41.7553 195.83 39.9023 194.464 38.536C193.098 37.1698 191.245 36.4022 189.312 36.4022C187.38 36.4022 185.527 37.1698 184.161 38.536L169.599 53.0985C168.579 54.1168 167.885 55.4147 167.603 56.8279C167.322 58.2411 167.466 59.706 168.018 61.0372C168.569 62.3684 169.503 63.506 170.702 64.306C171.9 65.106 173.309 65.5324 174.75 65.5312ZM179.901 169.599C178.535 168.232 176.682 167.465 174.75 167.465C172.818 167.465 170.965 168.232 169.599 169.599C168.232 170.965 167.465 172.818 167.465 174.75C167.465 176.682 168.232 178.535 169.599 179.901L184.161 194.464C184.838 195.14 185.641 195.677 186.525 196.043C187.408 196.409 188.356 196.598 189.312 196.598C190.269 196.598 191.217 196.409 192.1 196.043C192.984 195.677 193.787 195.14 194.464 194.464C195.14 193.787 195.677 192.984 196.043 192.1C196.409 191.217 196.598 190.269 196.598 189.312C196.598 188.356 196.409 187.408 196.043 186.525C195.677 185.641 195.14 184.838 194.464 184.161L179.901 169.599ZM43.6875 116.5C43.6875 114.569 42.9204 112.717 41.5549 111.351C40.1894 109.986 38.3374 109.219 36.4062 109.219H14.5625C12.6314 109.219 10.7794 109.986 9.41388 111.351C8.04838 112.717 7.28125 114.569 7.28125 116.5C7.28125 118.431 8.04838 120.283 9.41388 121.649C10.7794 123.014 12.6314 123.781 14.5625 123.781H36.4062C38.3374 123.781 40.1894 123.014 41.5549 121.649C42.9204 120.283 43.6875 118.431 43.6875 116.5ZM116.5 189.312C114.569 189.312 112.717 190.08 111.351 191.445C109.986 192.811 109.219 194.663 109.219 196.594V218.438C109.219 220.369 109.986 222.221 111.351 223.586C112.717 224.952 114.569 225.719 116.5 225.719C118.431 225.719 120.283 224.952 121.649 223.586C123.014 222.221 123.781 220.369 123.781 218.438V196.594C123.781 194.663 123.014 192.811 121.649 191.445C120.283 190.08 118.431 189.312 116.5 189.312ZM218.438 109.219H196.594C194.663 109.219 192.811 109.986 191.445 111.351C190.08 112.717 189.312 114.569 189.312 116.5C189.312 118.431 190.08 120.283 191.445 121.649C192.811 123.014 194.663 123.781 196.594 123.781H218.438C220.369 123.781 222.221 123.014 223.586 121.649C224.952 120.283 225.719 118.431 225.719 116.5C225.719 114.569 224.952 112.717 223.586 111.351C222.221 109.986 220.369 109.219 218.438 109.219Z" fill="#F8F8F8"/>
</svg>
