<svg width="233" height="233" viewBox="0 0 233 233" fill="none" xmlns="http://www.w3.org/2000/svg">
<path d="M141.984 69.1719C135.143 69.1671 128.343 70.2359 121.834 72.3392C118.908 66.867 114.93 62.0264 110.129 58.0953L120.65 43.0686C120.925 42.6766 121.119 42.2343 121.222 41.7672C121.326 41.3 121.336 40.817 121.253 40.3459C121.17 39.8747 120.994 39.4245 120.737 39.0211C120.48 38.6176 120.146 38.2688 119.754 37.9945C119.362 37.7202 118.92 37.5258 118.452 37.4224C117.985 37.319 117.502 37.3086 117.031 37.3919C116.56 37.4751 116.11 37.6503 115.706 37.9076C115.303 38.1648 114.954 38.499 114.68 38.891L104.167 53.9177C96.877 49.6067 88.5634 47.331 80.0938 47.3281C78.5374 47.3281 76.9992 47.4101 75.4884 47.5557L72.3028 29.4891C72.2197 29.0182 72.0447 28.5682 71.7878 28.1649C71.5308 27.7616 71.1969 27.4129 70.8052 27.1387C70.4135 26.8644 69.9716 26.67 69.5047 26.5665C69.0378 26.463 68.5552 26.4525 68.0842 26.5356C67.6133 26.6187 67.1634 26.7937 66.7601 27.0507C66.3568 27.3076 66.0081 27.6415 65.7338 28.0332C65.4596 28.425 65.2652 28.8669 65.1617 29.3337C65.0582 29.8006 65.0477 30.2833 65.1308 30.7542L68.3163 48.8117C58.5979 51.3319 49.9279 56.8665 43.551 64.6211L28.5061 54.0815C27.7119 53.5275 26.7302 53.3117 25.7769 53.4815C24.8236 53.6514 23.9769 54.1929 23.4229 54.9871C22.8689 55.7813 22.6531 56.763 22.8229 57.7163C22.9927 58.6696 23.5343 59.5163 24.3285 60.0703L39.3734 70.5735C35.039 77.8582 32.7558 86.1796 32.7656 94.6563C32.7656 96.1944 32.8475 97.7235 32.9932 99.2071L14.9266 102.393C14.0293 102.55 13.2235 103.038 12.6683 103.76C12.1132 104.482 11.8489 105.386 11.9278 106.294C12.0067 107.201 12.4229 108.046 13.0943 108.662C13.7658 109.278 14.6436 109.619 15.5546 109.619C15.7681 109.619 15.9812 109.6 16.1917 109.565L34.2583 106.379C35.7512 112.188 38.3332 117.661 41.8672 122.507C34.8268 128.171 29.7157 135.878 27.2381 144.568C24.7605 153.257 25.0382 162.501 28.0329 171.026C31.0277 179.552 36.5922 186.938 43.9599 192.169C51.3276 197.4 60.1361 200.218 69.1719 200.234H141.984C159.364 200.234 176.032 193.33 188.322 181.041C200.611 168.751 207.516 152.083 207.516 134.703C207.516 117.323 200.611 100.655 188.322 88.3656C176.032 76.0761 159.364 69.1719 141.984 69.1719ZM40.0469 94.6563C40.046 85.8049 42.9777 77.2026 48.3837 70.1939C53.7896 63.1851 61.3653 58.1649 69.9266 55.9177C78.488 53.6705 87.5527 54.323 95.7039 57.7732C103.855 61.2235 110.634 67.277 114.98 74.9878C106.709 78.7195 99.2992 84.1232 93.2184 90.8588C87.1376 97.5943 82.5171 105.516 79.6478 114.125C76.2193 113.284 72.702 112.859 69.1719 112.859C61.7131 112.855 54.3788 114.77 47.8742 118.42C42.794 111.538 40.051 103.21 40.0469 94.6563ZM141.984 192.953H69.1719C64.0285 192.949 58.9444 191.855 54.2545 189.744C49.5645 187.633 45.3752 184.551 41.9624 180.703C38.5497 176.855 35.9911 172.328 34.4551 167.419C32.919 162.511 32.4405 157.332 33.0511 152.225C33.6616 147.118 35.3473 142.199 37.9971 137.791C40.647 133.382 44.2008 129.586 48.4244 126.651C52.648 123.715 57.4456 121.709 62.5012 120.762C67.5567 119.816 72.7553 119.951 77.7547 121.16C77.0787 124.354 76.6437 127.594 76.4531 130.853C76.3976 131.819 76.7279 132.767 77.3714 133.489C78.0149 134.211 78.9189 134.648 79.8844 134.703C80.85 134.759 81.798 134.428 82.52 133.785C83.2421 133.141 83.6789 132.237 83.7344 131.272C83.9553 127.377 84.5651 123.514 85.5547 119.74C85.5547 119.631 85.6184 119.522 85.6366 119.413C88.4779 108.917 94.1973 99.4258 102.149 92.0099C110.1 84.594 119.967 79.5493 130.635 77.4456C141.302 75.342 152.346 76.2631 162.517 80.1051C172.689 83.947 181.583 90.5567 188.196 99.1874C194.809 107.818 198.877 118.126 199.94 128.947C201.004 139.768 199.02 150.671 194.213 160.423C189.407 170.176 181.969 178.391 172.739 184.139C163.51 189.887 152.857 192.94 141.984 192.953Z" fill="#F8F8F8"/>
</svg>
